<svg xmlns="http://www.w3.org/2000/svg" viewBox="0 0 237.78 128.14"><defs><style>.cls-1{fill:#a3a3a3;}.cls-2,.cls-4{fill:none;}.cls-2{stroke:#a3a3a3;stroke-linecap:round;stroke-linejoin:round;stroke-width:2px;}.cls-3{fill:#f3a83b;}.cls-4{stroke:#f3a83b;stroke-miterlimit:10;}</style></defs><g id="Capa_2" data-name="Capa 2"><g id="Capa_1-2" data-name="Capa 1"><path class="cls-1" d="M102.62,19.34A12.62,12.62,0,0,1,104,15c1.85-3,4.74-4.17,8.07-4.25q6.83-.16,13.64,0a9.09,9.09,0,0,1,7.71,3.76,10,10,0,0,1,1.69,5.74c.07,4.36.1,8.73,0,13.1-.08,3.52-1.3,6.52-4.6,8.31a10.43,10.43,0,0,1-4.89,1.2c-4.48,0-9,.1-13.46,0-3.36-.07-6.29-1.21-8.16-4.26a12.5,12.5,0,0,1-1.36-4.3Zm16.28-5.48c-2.23,0-4.46,0-6.69,0-3.48.08-5.62,1.71-6.25,4.71a9,9,0,0,0-.24,1.94c0,4.22-.08,8.44,0,12.66s2.21,6.44,6.26,6.59c4.57.17,9.15.15,13.73,0,3.37-.11,5.38-1.73,6-4.65a7.73,7.73,0,0,0,.23-1.58c0-4.81.29-9.63-.15-14.43a5.42,5.42,0,0,0-5-5.09A65.4,65.4,0,0,0,118.9,13.86Z"/><path class="cls-1" d="M127.28,26.88a8.43,8.43,0,1,1-8.37-8.42A8.45,8.45,0,0,1,127.28,26.88Zm-3.12,0a5.31,5.31,0,1,0-5.32,5.24A5.3,5.3,0,0,0,124.16,26.84Z"/><path class="cls-1" d="M127.51,16.26a2,2,0,0,1,2.06,2,2.05,2.05,0,0,1-4.1,0A2,2,0,0,1,127.51,16.26Z"/><rect class="cls-2" x="93.07" y="1" width="51.64" height="51.64" rx="12.61"/><path class="cls-1" d="M19.58,16.68a2.74,2.74,0,0,1-2.9,2.9,2.79,2.79,0,0,1-2.9-2.76,2.94,2.94,0,0,1,2.9-3A2.82,2.82,0,0,1,19.58,16.68Z"/><rect class="cls-1" x="13.78" y="21.03" width="5.79" height="18.83"/><path class="cls-1" d="M33.48,21.32A6.33,6.33,0,0,0,28,24.21h-.15l-.29-2.46H22.33c0,1.59.14,3.48.14,5.65V39.86h5.8V29.57a4.64,4.64,0,0,1,.14-1.45c.44-1,1.16-2.31,2.76-2.31,2,0,2.89,1.73,2.89,4.05v10h5.8V29.14C39.86,23.78,37.11,21.32,33.48,21.32Z"/><rect class="cls-2" x="1" y="1" width="51.64" height="51.64" rx="12.61"/><path class="cls-1" d="M208.08,25.78s2.82-.22,2.82-3.68S208.59,17,205.66,17H196V36.27h9.64s5.89.19,5.89-5.7C211.55,30.57,211.8,25.78,208.08,25.78Zm-7.81-5.39h5.39s1.31,0,1.31,2-.77,2.3-1.64,2.3h-5.06Zm5.12,12.45h-5.12V27.68h5.39s2,0,2,2.65C207.62,32.59,206.16,32.82,205.39,32.84Z"/><path class="cls-1" d="M219.4,21.87c-7.13,0-7.12,7.42-7.12,7.42s-.49,7.38,7.12,7.38c0,0,6.34.38,6.34-5.13h-3.26s.1,2.08-3,2.08a3.06,3.06,0,0,1-3.27-3.36h9.6S226.9,21.87,219.4,21.87Zm2.9,5.81h-6.09s.4-3,3.26-3S222.3,27.68,222.3,27.68Z"/><rect class="cls-1" x="215.41" y="18.1" width="7.64" height="2.38"/><rect class="cls-2" x="185.14" y="1" width="51.64" height="51.64" rx="12.61"/><path class="cls-3" d="M118.09,117.45c-2.17,0-4.12,0-5.94-.07-3.6-.08-6.13-1.39-7.74-4a11.33,11.33,0,0,1-1.27-4l0-.15V94.34l0-.06a11.45,11.45,0,0,1,1.27-4c1.6-2.61,4.11-3.93,7.66-4,2.22-.06,4.48-.08,6.73-.08s4.59,0,6.88.08c3.3.08,5.69,1.24,7.31,3.55a9.37,9.37,0,0,1,1.6,5.45c.06,3.85.11,8.42,0,13.09-.09,3.76-1.5,6.34-4.33,7.88a9.91,9.91,0,0,1-4.66,1.14C123.1,117.42,120.6,117.45,118.09,117.45Zm-3.33-29.11c-.86,0-1.71,0-2.56,0-3.72.08-6,1.85-6.73,5.1a9.65,9.65,0,0,0-.25,2v2.55c0,3.32,0,6.75,0,10.12.09,4.47,2.42,6.92,6.74,7.08,2.2.08,4.47.12,6.77.12h0c2.26,0,4.61,0,7-.12,3.55-.11,5.79-1.86,6.5-5a8.5,8.5,0,0,0,.24-1.69c0-1.23,0-2.45.05-3.68a102.74,102.74,0,0,0-.2-10.8,5.92,5.92,0,0,0-5.43-5.54,25.15,25.15,0,0,0-3.5-.2l-1.85,0-1.83,0h-.8Z"/><path class="cls-3" d="M118.81,86.7c2.26,0,4.57,0,6.86.08,3.13.08,5.39,1.17,6.92,3.34a9,9,0,0,1,1.5,5.17c.06,3.85.11,8.41,0,13.07-.08,3.57-1.41,6-4.07,7.45a9.42,9.42,0,0,1-4.43,1.08c-2.52,0-5,.06-7.49.06-2.17,0-4.12,0-5.93-.07-3.42-.07-5.82-1.31-7.34-3.78a11.42,11.42,0,0,1-1.2-3.81V94.37a11.35,11.35,0,0,1,1.2-3.81c1.51-2.46,3.88-3.7,7.25-3.78,2.22-.06,4.48-.08,6.72-.08h0m.91,1.16h-5c-.86,0-1.71,0-2.57,0-3.92.09-6.48,2-7.21,5.5a10.51,10.51,0,0,0-.26,2.14v2.54c0,3.33,0,6.76,0,10.15.1,4.71,2.66,7.4,7.22,7.57,2.2.08,4.48.12,6.78.12s4.63,0,7-.12c3.8-.12,6.21-2,7-5.43a9.41,9.41,0,0,0,.25-1.8c0-1.22,0-2.44.05-3.66a101.26,101.26,0,0,0-.2-10.86A6.48,6.48,0,0,0,127,88a26.23,26.23,0,0,0-3.57-.2l-1.85,0-1.82,0m-.92-2.16c-2.25,0-4.5,0-6.75.08-3.33.08-6.22,1.24-8.07,4.25a12.62,12.62,0,0,0-1.36,4.31v15a12.5,12.5,0,0,0,1.36,4.3c1.87,3,4.8,4.19,8.16,4.26,2,.05,4,.07,6,.07,2.5,0,5,0,7.5-.06a10.43,10.43,0,0,0,4.89-1.2c3.3-1.79,4.52-4.79,4.6-8.31.1-4.37.07-8.74,0-13.1a10,10,0,0,0-1.69-5.74,9.09,9.09,0,0,0-7.71-3.76c-2.29-.06-4.59-.08-6.89-.08Zm.92,3.16c1.22,0,2.45,0,3.67,0a24.58,24.58,0,0,1,3.43.2,5.42,5.42,0,0,1,5,5.09c.44,4.8.17,9.62.15,14.43a8.48,8.48,0,0,1-.23,1.58c-.64,2.92-2.65,4.54-6,4.65q-3.5.12-7,.12t-6.74-.12c-4-.15-6.17-2.39-6.26-6.59s0-8.44,0-12.66a9,9,0,0,1,.24-1.94c.63-3,2.77-4.63,6.25-4.71q1.28,0,2.55,0l4.14,0Z"/><path class="cls-3" d="M118.79,109.7a7.92,7.92,0,0,1-7.87-7.92A8,8,0,0,1,118.76,94h.14a7.87,7.87,0,1,1,0,15.74Zm0-13.62a5.75,5.75,0,1,0,5.82,5.76,5.77,5.77,0,0,0-5.82-5.76Z"/><path class="cls-3" d="M118.76,94.46h.13a7.37,7.37,0,1,1,0,14.74h-.09A7.27,7.27,0,0,1,113.6,107a7.36,7.36,0,0,1-2.18-5.24,7.45,7.45,0,0,1,7.34-7.32m.11,13.62h0a6.25,6.25,0,1,0-6.32-6.27,6.28,6.28,0,0,0,6.32,6.27h0m-.11-14.62a8.37,8.37,0,0,0,0,16.74h.1a8.37,8.37,0,1,0,0-16.74Zm.11,13.62h0a5.25,5.25,0,1,1,0-10.5h0a5.25,5.25,0,1,1,0,10.5Z"/><path class="cls-3" d="M127.52,94.77A1.57,1.57,0,0,1,126,93.28a1.49,1.49,0,0,1,.42-1,1.55,1.55,0,0,1,1.13-.47h0a1.57,1.57,0,0,1,1.11.46,1.51,1.51,0,0,1,.44,1,1.55,1.55,0,0,1-1.51,1.49Z"/><path class="cls-3" d="M127.54,91.26h0a2,2,0,0,0-2,2,2.07,2.07,0,0,0,2,2h0a2,2,0,1,0,0-4Z"/><rect class="cls-4" x="93.07" y="76" width="51.64" height="51.64" rx="12.61"/><path class="cls-3" d="M16.68,94.08a2.28,2.28,0,0,1-2.4-2.26,2.45,2.45,0,0,1,2.4-2.54,2.32,2.32,0,0,1,2.4,2.4A2.25,2.25,0,0,1,16.68,94.08Z"/><path class="cls-3" d="M16.68,89.78a1.82,1.82,0,0,1,1.9,1.9,1.76,1.76,0,0,1-1.9,1.9,1.8,1.8,0,0,1-1.9-1.76,1.94,1.94,0,0,1,1.9-2m0-1a2.94,2.94,0,0,0-2.9,3,2.79,2.79,0,0,0,2.9,2.76,2.74,2.74,0,0,0,2.9-2.9,2.82,2.82,0,0,0-2.9-2.9Z"/><rect class="cls-3" x="14.28" y="96.53" width="4.79" height="17.83"/><path class="cls-3" d="M18.58,97v16.83h-3.8V97h3.8m1-1h-5.8v18.83h5.8V96Z"/><path class="cls-3" d="M34.56,114.36v-9.5c0-2.85-1.27-4.55-3.39-4.55s-2.91,1.9-3.22,2.62a4.93,4.93,0,0,0-.18,1.64v9.79H23v-12c0-1.18,0-2.27-.08-3.28,0-.66-.05-1.28-.06-1.87H27.1l.29,2.46h.87l.14-.23a5.86,5.86,0,0,1,5.08-2.66c3.74,0,5.88,2.66,5.88,7.32v10.22Z"/><path class="cls-3" d="M33.48,97.32c3.42,0,5.38,2.48,5.38,6.82v9.72h-3.8v-9c0-3.16-1.45-5-3.89-5s-3.37,2.2-3.67,2.92l0,0v0a5.18,5.18,0,0,0-.2,1.76v9.29h-3.8V102.4c0-1.19,0-2.31-.08-3.3,0-.46,0-.92,0-1.35h3.31l.18,1.58.11.88h1.58l.3-.47a5.35,5.35,0,0,1,4.65-2.42m0-1A6.33,6.33,0,0,0,28,99.21h-.15l-.29-2.46H22.33c0,1.59.14,3.48.14,5.65v12.46h5.8V104.57a4.64,4.64,0,0,1,.14-1.45c.44-1,1.16-2.31,2.76-2.31,2,0,2.89,1.73,2.89,4v10h5.8V104.14c0-5.36-2.75-7.82-6.38-7.82Z"/><rect class="cls-4" x="1" y="76" width="51.64" height="51.64" rx="12.61"/><path class="cls-3" d="M196.52,110.77V92.46h9.14c3,0,4.74,1.74,4.74,4.64s-2.26,3.17-2.36,3.18l0,1a2.49,2.49,0,0,1,1.9.74,5.4,5.4,0,0,1,1.07,3.53v.21h0a4.59,4.59,0,0,1-2.41,4.28,6.56,6.56,0,0,1-2.91.72Zm3.25-2.43h5.62c1.76,0,2.73-1.11,2.73-3,0-2.49-1.61-3.15-2.46-3.15h-5.89Zm0-8.14h5.56c1.46,0,2.14-.89,2.14-2.8s-1.18-2.51-1.81-2.51h-5.89Z"/><path class="cls-3" d="M205.66,93c1.28,0,4.24.41,4.24,4.14,0,2.36-1.59,2.65-1.9,2.68l.08,2a2,2,0,0,1,1.55.59,5,5,0,0,1,.92,3.16l0,.44h0c-.24,4.08-4,4.29-4.81,4.29H197V93h8.64m-6.39,7.74h6.06c1.75,0,2.64-1.11,2.64-3.3,0-2.47-1.67-3-2.31-3h-6.39v6.31m0,8.14h6.14c2,0,3.21-1.36,3.21-3.51,0-2.89-1.94-3.65-3-3.65h-6.39v7.16M205.66,92H196v19.31h9.71c.63,0,5.82-.17,5.82-5.7,0,0,.25-4.79-3.47-4.79,0,0,2.82-.22,2.82-3.68S208.59,92,205.66,92Zm-5.39,7.74V95.39h5.39s1.31,0,1.31,2-.77,2.3-1.64,2.3Zm0,8.14v-5.16h5.39c.08,0,2,0,2,2.65,0,2.26-1.46,2.49-2.23,2.51Z"/><path class="cls-3" d="M219.43,111.17a6.47,6.47,0,0,1-5-1.81,7.51,7.51,0,0,1-1.71-5c0-.32.09-7,6.63-7a5.56,5.56,0,0,1,4.39,1.72c1.61,1.82,1.64,4.6,1.59,5.67h-9.64v.5a3.58,3.58,0,0,0,1.6,3.3,4,4,0,0,0,2,.56h.16a3.69,3.69,0,0,0,2.77-1,2.36,2.36,0,0,0,.6-1.11h2.3c-.32,3.83-4.31,4.14-5.57,4.14Zm0-12a3.8,3.8,0,0,0-3.75,3.41l-.08.57h7.15v-.5a4,4,0,0,0-1-2.59A3.14,3.14,0,0,0,219.47,99.2Z"/><path class="cls-3" d="M219.4,97.87a5.1,5.1,0,0,1,4,1.55,7.48,7.48,0,0,1,1.47,4.84h-9.65v1a4,4,0,0,0,4.15,4.36h.14a4.2,4.2,0,0,0,3.15-1.12,3,3,0,0,0,.61-1h1.35c-.58,2.81-3.61,3.14-5,3.14h-.25a6,6,0,0,1-4.55-1.64,7.07,7.07,0,0,1-1.58-4.67v-.07c0-.26.1-6.42,6.12-6.42m-4.33,5.81h8.22v-1a4.39,4.39,0,0,0-1.15-3,3.63,3.63,0,0,0-2.68-1,4.31,4.31,0,0,0-4.25,3.85l-.15,1.13m4.33-6.81c-7.13,0-7.12,7.42-7.12,7.42s-.49,7.38,7.12,7.38h.25c1.19,0,6.09-.29,6.09-5.14h-3.26s.1,2.08-3,2.08h-.12a3,3,0,0,1-3.15-3.36h9.6s1.06-8.39-6.44-8.39Zm-3.19,5.81s.4-3,3.26-3,2.83,3,2.83,3Z"/><rect class="cls-3" x="215.91" y="93.6" width="6.64" height="1.38"/><path class="cls-3" d="M222.05,94.1v.38h-5.64V94.1h5.64m1-1h-7.64v2.38h7.64V93.1Z"/><rect class="cls-4" x="185.14" y="76" width="51.64" height="51.64" rx="12.61"/></g></g></svg>